<svg xmlns="http://www.w3.org/2000/svg" xmlns:xlink="http://www.w3.org/1999/xlink" contentStyleType="text/css" data-diagram-type="SEQUENCE" height="594px" preserveAspectRatio="none" style="width:593px;height:594px;background:#FFFFFF;" version="1.1" viewBox="0 0 593 594" width="593px" zoomAndPan="magnify"><?plantuml 1.2026.6?><defs/><g><rect fill="#DDDDDD" height="568.123" style="stroke:none;stroke-width:0.5;" width="386.4443" x="16" y="11"/><text fill="#191970" font-family="sans-serif" font-size="13" font-weight="700" lengthAdjust="spacing" textLength="48.3818" x="185.0313" y="23.5684">Node A</text><rect fill="#DDDDDD" height="568.123" style="stroke:none;stroke-width:0.5;" width="161.9463" x="414.4443" y="11"/><text fill="#191970" font-family="sans-serif" font-size="13" font-weight="700" lengthAdjust="spacing" textLength="46.998" x="471.9185" y="23.5684">Node B</text><g><title>NSAP</title><rect fill="#000000" fill-opacity="0.00000" height="217.5293" width="8" x="41.1401" y="61.7988"/><line style="stroke:#191970;stroke-width:0.5;stroke-dasharray:5,5;" x1="44.6401" x2="44.6401" y1="61.7988" y2="279.3281"/></g><line style="stroke:#191970;stroke-width:0.5;stroke-dasharray:1,4;" x1="44.6401" x2="44.6401" y1="279.3281" y2="307.3281"/><g><title>NSAP</title><rect fill="#000000" fill-opacity="0.00000" height="265.7949" width="8" x="41.1401" y="307.3281"/><line style="stroke:#191970;stroke-width:0.5;stroke-dasharray:5,5;" x1="44.6401" x2="44.6401" y1="307.3281" y2="573.123"/></g><g><title>TCO</title><rect fill="#000000" fill-opacity="0.00000" height="217.5293" width="8" x="148.7388" y="61.7988"/><line style="stroke:#191970;stroke-width:0.5;stroke-dasharray:5,5;" x1="152.2388" x2="152.2388" y1="61.7988" y2="279.3281"/></g><line style="stroke:#191970;stroke-width:0.5;stroke-dasharray:1,4;" x1="152.2388" x2="152.2388" y1="279.3281" y2="307.3281"/><g><title>TCO</title><rect fill="#000000" fill-opacity="0.00000" height="265.7949" width="8" x="148.7388" y="307.3281"/><line style="stroke:#191970;stroke-width:0.5;stroke-dasharray:5,5;" x1="152.2388" x2="152.2388" y1="307.3281" y2="573.123"/></g><g><title>TSM</title><rect fill="#000000" fill-opacity="0.00000" height="180.2188" width="8" x="263.0215" y="99.1094"/><line style="stroke:#191970;stroke-width:0.5;stroke-dasharray:5,5;" x1="266.5215" x2="266.5215" y1="99.1094" y2="279.3281"/></g><line style="stroke:#191970;stroke-width:0.5;stroke-dasharray:1,4;" x1="266.5215" x2="266.5215" y1="279.3281" y2="307.3281"/><g><title>TSM</title><rect fill="#000000" fill-opacity="0.00000" height="265.7949" width="8" x="263.0215" y="307.3281"/><line style="stroke:#191970;stroke-width:0.5;stroke-dasharray:5,5;" x1="266.5215" x2="266.5215" y1="307.3281" y2="573.123"/></g><line style="stroke:#FF0000;stroke-width:2;" x1="257.5215" x2="275.5215" y1="466.1914" y2="484.1914"/><line style="stroke:#FF0000;stroke-width:2;" x1="257.5215" x2="275.5215" y1="484.1914" y2="466.1914"/><g><title>AEI</title><rect fill="#000000" fill-opacity="0.00000" height="148.7305" width="8" x="377.3042" y="130.5977"/><line style="stroke:#191970;stroke-width:0.5;stroke-dasharray:5,5;" x1="380.8042" x2="380.8042" y1="130.5977" y2="279.3281"/></g><line style="stroke:#191970;stroke-width:0.5;stroke-dasharray:1,4;" x1="380.8042" x2="380.8042" y1="279.3281" y2="307.3281"/><g><title>AEI</title><rect fill="#000000" fill-opacity="0.00000" height="265.7949" width="8" x="377.3042" y="307.3281"/><line style="stroke:#191970;stroke-width:0.5;stroke-dasharray:5,5;" x1="380.8042" x2="380.8042" y1="307.3281" y2="573.123"/></g><line style="stroke:#FF0000;stroke-width:2;" x1="371.8042" x2="389.8042" y1="407.5703" y2="425.5703"/><line style="stroke:#FF0000;stroke-width:2;" x1="371.8042" x2="389.8042" y1="425.5703" y2="407.5703"/><g><title>NSAP</title><rect fill="#000000" fill-opacity="0.00000" height="217.5293" width="8" x="439.5845" y="61.7988"/><line style="stroke:#191970;stroke-width:0.5;stroke-dasharray:5,5;" x1="443.0845" x2="443.0845" y1="61.7988" y2="279.3281"/></g><line style="stroke:#191970;stroke-width:0.5;stroke-dasharray:1,4;" x1="443.0845" x2="443.0845" y1="279.3281" y2="307.3281"/><g><title>NSAP</title><rect fill="#000000" fill-opacity="0.00000" height="265.7949" width="8" x="439.5845" y="307.3281"/><line style="stroke:#191970;stroke-width:0.5;stroke-dasharray:5,5;" x1="443.0845" x2="443.0845" y1="307.3281" y2="573.123"/></g><g><title>TCO</title><rect fill="#000000" fill-opacity="0.00000" height="217.5293" width="8" x="547.1831" y="61.7988"/><line style="stroke:#191970;stroke-width:0.5;stroke-dasharray:5,5;" x1="550.6831" x2="550.6831" y1="61.7988" y2="279.3281"/></g><line style="stroke:#191970;stroke-width:0.5;stroke-dasharray:1,4;" x1="550.6831" x2="550.6831" y1="279.3281" y2="307.3281"/><g><title>TCO</title><rect fill="#000000" fill-opacity="0.00000" height="265.7949" width="8" x="547.1831" y="307.3281"/><line style="stroke:#191970;stroke-width:0.5;stroke-dasharray:5,5;" x1="550.6831" x2="550.6831" y1="307.3281" y2="573.123"/></g><rect fill="#FFFFCC" height="30.4883" rx="2.5" ry="2.5" style="stroke:none;stroke-width:0.5;" width="49.2803" x="20" y="30.3105"/><text fill="#191970" font-family="sans-serif" font-size="14" lengthAdjust="spacing" textLength="35.2803" x="27" y="50.8457">NSAP</text><rect fill="#99CC99" height="30.4883" rx="2.5" ry="2.5" style="stroke:none;stroke-width:0.5;" width="43.415" x="130.5313" y="30.3105"/><text fill="#191970" font-family="sans-serif" font-size="14" lengthAdjust="spacing" textLength="29.415" x="137.5313" y="50.8457">TCO</text><rect fill="#FFFFCC" height="30.4883" rx="2.5" ry="2.5" style="stroke:none;stroke-width:0.5;" width="49.2803" x="418.4443" y="30.3105"/><text fill="#191970" font-family="sans-serif" font-size="14" lengthAdjust="spacing" textLength="35.2803" x="425.4443" y="50.8457">NSAP</text><rect fill="#99CC99" height="30.4883" rx="2.5" ry="2.5" style="stroke:none;stroke-width:0.5;" width="43.415" x="528.9756" y="30.3105"/><text fill="#191970" font-family="sans-serif" font-size="14" lengthAdjust="spacing" textLength="29.415" x="535.9756" y="50.8457">TCO</text><polygon fill="#191970" points="140.2388,87.1094,150.2388,91.1094,140.2388,95.1094" style="stroke:#191970;stroke-width:1;stroke-linejoin:miter;stroke-miterlimit:10;"/><line style="stroke:#191970;stroke-width:1;" x1="44.6401" x2="146.2388" y1="91.1094" y2="91.1094"/><text fill="#191970" font-family="sans-serif" font-size="13" lengthAdjust="spacing" textLength="83.5986" x="51.6401" y="86.3672">N-UNITDATA</text><rect fill="#99CC99" height="30.4883" rx="2.5" ry="2.5" style="stroke:none;stroke-width:0.5;" width="42.4512" x="245.2959" y="99.1094"/><text fill="#191970" font-family="sans-serif" font-size="14" lengthAdjust="spacing" textLength="28.4512" x="252.2959" y="119.6445">TSM</text><polygon fill="#191970" points="233.2959,116.4199,243.2959,120.4199,233.2959,124.4199" style="stroke:#191970;stroke-width:1;stroke-linejoin:miter;stroke-miterlimit:10;"/><line style="stroke:#191970;stroke-width:1;" x1="152.2388" x2="239.2959" y1="120.4199" y2="120.4199"/><text fill="#191970" font-family="sans-serif" font-size="13" lengthAdjust="spacing" textLength="61.2295" x="159.2388" y="115.6777">TR-BEGIN</text><rect fill="#FF9999" height="30.4883" rx="2.5" ry="2.5" style="stroke:none;stroke-width:0.5;" width="35.2803" x="363.1641" y="130.5977"/><text fill="#191970" font-family="sans-serif" font-size="14" lengthAdjust="spacing" textLength="21.2803" x="370.1641" y="151.1328">AEI</text><polygon fill="#191970" points="351.1641,147.9082,361.1641,151.9082,351.1641,155.9082" style="stroke:#191970;stroke-width:1;stroke-linejoin:miter;stroke-miterlimit:10;"/><line style="stroke:#191970;stroke-width:1;" x1="266.5215" x2="357.1641" y1="151.9082" y2="151.9082"/><text fill="#191970" font-family="sans-serif" font-size="13" lengthAdjust="spacing" textLength="61.2295" x="273.5215" y="147.166">TR-BEGIN</text><polygon fill="#191970" points="163.2388,179.3965,153.2388,183.3965,163.2388,187.3965" style="stroke:#191970;stroke-width:1;stroke-linejoin:miter;stroke-miterlimit:10;"/><line style="stroke:#191970;stroke-width:1;" x1="157.2388" x2="379.8042" y1="183.3965" y2="183.3965"/><text fill="#191970" font-family="sans-serif" font-size="13" lengthAdjust="spacing" textLength="90.2827" x="169.2388" y="178.6543">TR-CONTINUE</text><polygon fill="#191970" points="254.5215,208.707,264.5215,212.707,254.5215,216.707" style="stroke:#191970;stroke-width:1;stroke-linejoin:miter;stroke-miterlimit:10;"/><line style="stroke:#191970;stroke-width:1;" x1="152.2388" x2="260.5215" y1="212.707" y2="212.707"/><text fill="#191970" font-family="sans-serif" font-size="13" lengthAdjust="spacing" textLength="90.2827" x="159.2388" y="207.9648">TR-CONTINUE</text><polygon fill="#191970" points="163.2388,238.0176,153.2388,242.0176,163.2388,246.0176" style="stroke:#191970;stroke-width:1;stroke-linejoin:miter;stroke-miterlimit:10;"/><line style="stroke:#191970;stroke-width:1;" x1="157.2388" x2="265.5215" y1="242.0176" y2="242.0176"/><text fill="#191970" font-family="sans-serif" font-size="13" lengthAdjust="spacing" textLength="83.5986" x="169.2388" y="237.2754">N-UNITDATA</text><polygon fill="#191970" points="55.6401,267.3281,45.6401,271.3281,55.6401,275.3281" style="stroke:#191970;stroke-width:1;stroke-linejoin:miter;stroke-miterlimit:10;"/><line style="stroke:#191970;stroke-width:1;" x1="49.6401" x2="151.2388" y1="271.3281" y2="271.3281"/><text fill="#191970" font-family="sans-serif" font-size="13" lengthAdjust="spacing" textLength="83.5986" x="61.6401" y="266.5859">N-UNITDATA</text><polygon fill="#191970" points="538.6831,324.6387,548.6831,328.6387,538.6831,332.6387" style="stroke:#191970;stroke-width:1;stroke-linejoin:miter;stroke-miterlimit:10;"/><line style="stroke:#191970;stroke-width:1;" x1="443.0845" x2="544.6831" y1="328.6387" y2="328.6387"/><text fill="#191970" font-family="sans-serif" font-size="13" lengthAdjust="spacing" textLength="83.5986" x="450.0845" y="323.8965">N-UNITDATA</text><polygon fill="#191970" points="277.5215,353.9492,267.5215,357.9492,277.5215,361.9492" style="stroke:#191970;stroke-width:1;stroke-linejoin:miter;stroke-miterlimit:10;"/><line style="stroke:#191970;stroke-width:1;" x1="271.5215" x2="549.6831" y1="357.9492" y2="357.9492"/><text fill="#191970" font-family="sans-serif" font-size="13" lengthAdjust="spacing" textLength="90.2827" x="283.5215" y="353.207">TR-CONTINUE</text><polygon fill="#191970" points="368.8042,383.2598,378.8042,387.2598,368.8042,391.2598" style="stroke:#191970;stroke-width:1;stroke-linejoin:miter;stroke-miterlimit:10;"/><line style="stroke:#191970;stroke-width:1;" x1="266.5215" x2="374.8042" y1="387.2598" y2="387.2598"/><text fill="#191970" font-family="sans-serif" font-size="13" lengthAdjust="spacing" textLength="90.2827" x="273.5215" y="382.5176">TR-CONTINUE</text><polygon fill="#191970" points="163.2388,412.5703,153.2388,416.5703,163.2388,420.5703" style="stroke:#191970;stroke-width:1;stroke-linejoin:miter;stroke-miterlimit:10;"/><line style="stroke:#191970;stroke-width:1;" x1="157.2388" x2="379.8042" y1="416.5703" y2="416.5703"/><text fill="#191970" font-family="sans-serif" font-size="13" lengthAdjust="spacing" textLength="50.3496" x="169.2388" y="411.8281">TR-END</text><polygon fill="#191970" points="254.5215,441.8809,264.5215,445.8809,254.5215,449.8809" style="stroke:#191970;stroke-width:1;stroke-linejoin:miter;stroke-miterlimit:10;"/><line style="stroke:#191970;stroke-width:1;" x1="152.2388" x2="260.5215" y1="445.8809" y2="445.8809"/><text fill="#191970" font-family="sans-serif" font-size="13" lengthAdjust="spacing" textLength="50.3496" x="159.2388" y="441.1387">TR-END</text><polygon fill="#191970" points="163.2388,471.1914,153.2388,475.1914,163.2388,479.1914" style="stroke:#191970;stroke-width:1;stroke-linejoin:miter;stroke-miterlimit:10;"/><line style="stroke:#191970;stroke-width:1;" x1="157.2388" x2="265.5215" y1="475.1914" y2="475.1914"/><text fill="#191970" font-family="sans-serif" font-size="13" lengthAdjust="spacing" textLength="83.5986" x="169.2388" y="470.4492">N-UNITDATA</text><polygon fill="#191970" points="431.0845,500.502,441.0845,504.502,431.0845,508.502" style="stroke:#191970;stroke-width:1;stroke-linejoin:miter;stroke-miterlimit:10;"/><line style="stroke:#191970;stroke-width:1;" x1="152.2388" x2="437.0845" y1="504.502" y2="504.502"/><text fill="#191970" font-family="sans-serif" font-size="13" lengthAdjust="spacing" textLength="83.5986" x="159.2388" y="499.7598">N-UNITDATA</text><path d="M120.5706,517.502 L120.5706,557.502 L474.5706,557.502 L474.5706,527.502 L464.5706,517.502 L120.5706,517.502" fill="#FEFFDD" style="stroke:#191970;stroke-width:0.5;"/><path d="M464.5706,517.502 L464.5706,527.502 L474.5706,527.502 L464.5706,517.502" fill="#FEFFDD" style="stroke:#191970;stroke-width:0.5;"/><text fill="#191970" font-family="sans-serif" font-size="13" lengthAdjust="spacing" textLength="23.5308" x="126.5706" y="535.0703">The</text><text fill="#191970" font-family="monospace" font-size="13" lengthAdjust="spacing" textLength="250.4531" x="154.2146" y="534.7466">tcap_tco_server:send_primitive/2</text><text fill="#191970" font-family="sans-serif" font-size="13" lengthAdjust="spacing" textLength="50.9717" x="408.781" y="535.0703">callback</text><text fill="#191970" font-family="sans-serif" font-size="13" lengthAdjust="spacing" textLength="301.5264" x="126.5706" y="550.3809">gets original MTP SAP from SCCP party address.</text><?plantuml-src XPDRZzem48MVur_XqjU6LNaBGaZSTeNKpQAIVKR66OArYPtQPhUqsl_UiHqk4KIDb23cV1EVENRCcv0rqwoYnXvBmASMt1wgaenyOKmYisUv-X2oe3jM6i02_3g0v30Nh72TVqaK_H0IPgfKcbOYbwBOssrvG3PwLDBU5RRgj--yQfLAEkKJR_Ha1HSraxQ3YgQClnLQ7MGUwXzxORrWEAz3qmtpTOSNvqvpgqJMb5raad2U96UIWUX-Pv9SI7UNOWVESEZ80LDLnwRzCeY6_AhfaumUciZt8dSx0HgKFTOG_k-KifWP-L9hLbICMb1_gDMO9N5HfWgP2Ma5bwudAyeCbORLt-bev88PZzjCDdjnYENA4PZ73R1-ze2fEe39Oka03CW1-8C0o9mwisTdqsvdW_yw6vmNFhsNX97YSJ0-f6dycYwp-IIR4Aw1MV26YLSTvTmFQVOpdYwUbkc9SPw9rv3n0rmn8PBugZvxIRDb-he8BIWrYxUafgjPySfNimln7SlzVf-4AC94WxRiAwqfsavQvc-SNAH5EYUdmtWPlJM7Gxf7E3NxR9kzkpUFL1YkUWVjjMzXcqcKxO7sUfQpUeFrZG6DoD3WfcvgBIfXnJiy37ezobbPRl4p8r41rb2bHI4aA-bpjgBkvEoqgkXwDbjHTs1mc3pNO4pVdm-tEFa7?></g></svg>