<svg xmlns="http://www.w3.org/2000/svg" xmlns:xlink="http://www.w3.org/1999/xlink" contentStyleType="text/css" data-diagram-type="SEQUENCE" height="529px" preserveAspectRatio="none" style="width:622px;height:529px;background:#FFFFFF;" version="1.1" viewBox="0 0 622 529" width="622px" zoomAndPan="magnify"><?plantuml 1.2026.6?><defs/><g><rect fill="#FFFFCC" height="503.5469" style="stroke:none;stroke-width:0.5;" width="62.2065" x="16" y="11"/><text fill="#191970" font-family="sans-serif" font-size="13" font-weight="700" lengthAdjust="spacing" textLength="33.9219" x="28" y="23.5684">SCCP</text><rect fill="#99CC99" height="503.5469" style="stroke:none;stroke-width:0.5;" width="165.2158" x="128.9944" y="11"/><text fill="#191970" font-family="sans-serif" font-size="13" font-weight="700" lengthAdjust="spacing" textLength="23.9561" x="197.4819" y="23.5684">TSL</text><rect fill="#FF9999" height="503.5469" style="stroke:none;stroke-width:0.5;" width="254.8813" x="350.2141" y="11"/><text fill="#191970" font-family="sans-serif" font-size="13" font-weight="700" lengthAdjust="spacing" textLength="21.6899" x="464.6675" y="23.5684">AEI</text><rect fill="#99CC99" height="483.2363" style="stroke:none;stroke-width:0.5;" width="160.4697" x="350.2141" y="31.3105"/><text fill="#191970" font-family="sans-serif" font-size="13" font-weight="700" lengthAdjust="spacing" textLength="24.248" x="416.1826" y="43.8789">CSL</text><g><title>NSAP</title><rect fill="#000000" fill-opacity="0.00000" height="409.4375" width="8" x="43.6033" y="99.1094"/><line style="stroke:#191970;stroke-width:0.5;stroke-dasharray:5,5;" x1="47.1033" x2="47.1033" y1="99.1094" y2="508.5469"/></g><g><title>TCO</title><rect fill="#000000" fill-opacity="0.00000" height="409.4375" width="8" x="151.2019" y="99.1094"/><line style="stroke:#191970;stroke-width:0.5;stroke-dasharray:5,5;" x1="154.7019" x2="154.7019" y1="99.1094" y2="508.5469"/></g><g><title>TSM</title><rect fill="#000000" fill-opacity="0.00000" height="372.127" width="8" x="265.4846" y="136.4199"/><line style="stroke:#191970;stroke-width:0.5;stroke-dasharray:5,5;" x1="268.9846" x2="268.9846" y1="136.4199" y2="508.5469"/></g><g><title>DHA</title><rect fill="#000000" fill-opacity="0.00000" height="340.6387" width="8" x="372.9309" y="167.9082"/><line style="stroke:#191970;stroke-width:0.5;stroke-dasharray:5,5;" x1="376.4309" x2="376.4309" y1="167.9082" y2="508.5469"/></g><g><title>CCO</title><rect fill="#000000" fill-opacity="0.00000" height="309.1504" width="8" x="481.0593" y="199.3965"/><line style="stroke:#191970;stroke-width:0.5;stroke-dasharray:5,5;" x1="484.5593" x2="484.5593" y1="199.3965" y2="508.5469"/></g><g><title>USAP</title><rect fill="#000000" fill-opacity="0.00000" height="277.6621" width="8" x="577.2766" y="230.8848"/><line style="stroke:#191970;stroke-width:0.5;stroke-dasharray:5,5;" x1="580.7766" x2="580.7766" y1="230.8848" y2="508.5469"/></g><text fill="#191970" font-family="sans-serif" font-size="14" lengthAdjust="spacing" textLength="35.2803" x="26.4631" y="96.1563">NSAP</text><ellipse cx="47.1033" cy="66.6211" fill="#D3D3D3" rx="12" ry="12" style="stroke:none;stroke-width:0.5;"/><line style="stroke:none;stroke-width:0.5;" x1="35.1033" x2="59.1033" y1="80.6211" y2="80.6211"/><rect fill="#FFFFFF" height="30.4883" rx="2.5" ry="2.5" style="stroke:none;stroke-width:0.5;" width="43.415" x="132.9944" y="67.6211"/><text fill="#191970" font-family="sans-serif" font-size="14" lengthAdjust="spacing" textLength="29.415" x="139.9944" y="88.1563">TCO</text><polygon fill="#191970" points="142.7019,124.4199,152.7019,128.4199,142.7019,132.4199,146.7019,128.4199" style="stroke:#191970;stroke-width:1;stroke-linejoin:miter;stroke-miterlimit:10;"/><line style="stroke:#191970;stroke-width:1;" x1="47.1033" x2="148.7019" y1="128.4199" y2="128.4199"/><text fill="#191970" font-family="sans-serif" font-size="13" lengthAdjust="spacing" textLength="83.5986" x="54.1033" y="123.6777">N-UNITDATA</text><rect fill="#FFFFFF" height="30.4883" rx="2.5" ry="2.5" style="stroke:none;stroke-width:0.5;" width="42.4512" x="247.759" y="136.4199"/><text fill="#191970" font-family="sans-serif" font-size="14" lengthAdjust="spacing" textLength="28.4512" x="254.759" y="156.9551">TSM</text><polygon fill="#191970" points="235.759,153.7305,245.759,157.7305,235.759,161.7305,239.759,157.7305" style="stroke:#191970;stroke-width:1;stroke-linejoin:miter;stroke-miterlimit:10;"/><line style="stroke:#191970;stroke-width:1;" x1="154.7019" x2="241.759" y1="157.7305" y2="157.7305"/><text fill="#191970" font-family="sans-serif" font-size="13" lengthAdjust="spacing" textLength="61.2295" x="161.7019" y="152.9883">TR-BEGIN</text><rect fill="#FFFFFF" height="30.4883" rx="2.5" ry="2.5" style="stroke:none;stroke-width:0.5;" width="44.4336" x="354.2141" y="167.9082"/><text fill="#191970" font-family="sans-serif" font-size="14" lengthAdjust="spacing" textLength="30.4336" x="361.2141" y="188.4434">DHA</text><polygon fill="#191970" points="342.2141,185.2188,352.2141,189.2188,342.2141,193.2188,346.2141,189.2188" style="stroke:#191970;stroke-width:1;stroke-linejoin:miter;stroke-miterlimit:10;"/><line style="stroke:#191970;stroke-width:1;" x1="268.9846" x2="348.2141" y1="189.2188" y2="189.2188"/><text fill="#191970" font-family="sans-serif" font-size="13" lengthAdjust="spacing" textLength="61.2295" x="275.9846" y="184.4766">TR-BEGIN</text><rect fill="#FFFFFF" height="30.4883" rx="2.5" ry="2.5" style="stroke:none;stroke-width:0.5;" width="44.249" x="462.4348" y="199.3965"/><text fill="#191970" font-family="sans-serif" font-size="14" lengthAdjust="spacing" textLength="30.249" x="469.4348" y="219.9316">CCO</text><polygon fill="#191970" points="450.4348,216.707,460.4348,220.707,450.4348,224.707,454.4348,220.707" style="stroke:#191970;stroke-width:1;stroke-linejoin:miter;stroke-miterlimit:10;"/><line style="stroke:#191970;stroke-width:1;" x1="376.4309" x2="456.4348" y1="220.707" y2="220.707"/><text fill="#191970" font-family="sans-serif" font-size="13" lengthAdjust="spacing" textLength="62.0039" x="383.4309" y="215.9648">TC-BEGIN</text><text fill="#191970" font-family="sans-serif" font-size="14" lengthAdjust="spacing" textLength="34.6377" x="560.4578" y="276.4199">USAP</text><ellipse cx="580.7766" cy="246.8848" fill="#D3D3D3" rx="12" ry="12" style="stroke:none;stroke-width:0.5;"/><line style="stroke:none;stroke-width:0.5;" x1="568.7766" x2="592.7766" y1="260.8848" y2="260.8848"/><polygon fill="#191970" points="548.4578,248.1953,558.4578,252.1953,548.4578,256.1953,552.4578,252.1953" style="stroke:#191970;stroke-width:1;stroke-linejoin:miter;stroke-miterlimit:10;"/><line style="stroke:#191970;stroke-width:1;" x1="376.4309" x2="554.4578" y1="252.1953" y2="252.1953"/><text fill="#191970" font-family="sans-serif" font-size="13" lengthAdjust="spacing" textLength="62.0039" x="383.4309" y="247.4531">TC-BEGIN</text><polygon fill="#191970" points="568.7766,296.6836,578.7766,300.6836,568.7766,304.6836,572.7766,300.6836" style="stroke:#191970;stroke-width:1;stroke-linejoin:miter;stroke-miterlimit:10;"/><line style="stroke:#191970;stroke-width:1;" x1="484.5593" x2="574.7766" y1="300.6836" y2="300.6836"/><text fill="#191970" font-family="sans-serif" font-size="13" lengthAdjust="spacing" textLength="72.2173" x="491.5593" y="295.9414">TC-INVOKE</text><polygon fill="#191970" points="495.5593,325.9941,485.5593,329.9941,495.5593,333.9941,491.5593,329.9941" style="stroke:#191970;stroke-width:1;stroke-linejoin:miter;stroke-miterlimit:10;"/><line style="stroke:#191970;stroke-width:1;" x1="489.5593" x2="579.7766" y1="329.9941" y2="329.9941"/><text fill="#191970" font-family="sans-serif" font-size="13" lengthAdjust="spacing" textLength="72.2173" x="501.5593" y="325.252">TC-INVOKE</text><polygon fill="#191970" points="387.4309,355.3047,377.4309,359.3047,387.4309,363.3047,383.4309,359.3047" style="stroke:#191970;stroke-width:1;stroke-linejoin:miter;stroke-miterlimit:10;"/><line style="stroke:#191970;stroke-width:1;" x1="381.4309" x2="579.7766" y1="359.3047" y2="359.3047"/><text fill="#191970" font-family="sans-serif" font-size="13" lengthAdjust="spacing" textLength="91.0571" x="393.4309" y="354.5625">TC-CONTINUE</text><polygon fill="#191970" points="387.4309,369.3047,377.4309,373.3047,387.4309,377.3047,383.4309,373.3047" style="stroke:#191970;stroke-width:1;stroke-linejoin:miter;stroke-miterlimit:10;"/><polygon fill="#191970" points="472.5593,369.3047,482.5593,373.3047,472.5593,377.3047,476.5593,373.3047" style="stroke:#191970;stroke-width:1;stroke-linejoin:miter;stroke-miterlimit:10;"/><line style="stroke:#191970;stroke-width:1;" x1="381.4309" x2="478.5593" y1="373.3047" y2="373.3047"/><polygon fill="#191970" points="165.7019,398.6152,155.7019,402.6152,165.7019,406.6152,161.7019,402.6152" style="stroke:#191970;stroke-width:1;stroke-linejoin:miter;stroke-miterlimit:10;"/><line style="stroke:#191970;stroke-width:1;" x1="159.7019" x2="375.4309" y1="402.6152" y2="402.6152"/><text fill="#191970" font-family="sans-serif" font-size="13" lengthAdjust="spacing" textLength="90.2827" x="171.7019" y="397.873">TR-CONTINUE</text><polygon fill="#191970" points="256.9846,427.9258,266.9846,431.9258,256.9846,435.9258,260.9846,431.9258" style="stroke:#191970;stroke-width:1;stroke-linejoin:miter;stroke-miterlimit:10;"/><line style="stroke:#191970;stroke-width:1;" x1="154.7019" x2="262.9846" y1="431.9258" y2="431.9258"/><text fill="#191970" font-family="sans-serif" font-size="13" lengthAdjust="spacing" textLength="90.2827" x="161.7019" y="427.1836">TR-CONTINUE</text><polygon fill="#191970" points="165.7019,457.2363,155.7019,461.2363,165.7019,465.2363,161.7019,461.2363" style="stroke:#191970;stroke-width:1;stroke-linejoin:miter;stroke-miterlimit:10;"/><line style="stroke:#191970;stroke-width:1;" x1="159.7019" x2="267.9846" y1="461.2363" y2="461.2363"/><text fill="#191970" font-family="sans-serif" font-size="13" lengthAdjust="spacing" textLength="83.5986" x="171.7019" y="456.4941">N-UNITDATA</text><polygon fill="#191970" points="58.1033,486.5469,48.1033,490.5469,58.1033,494.5469,54.1033,490.5469" style="stroke:#191970;stroke-width:1;stroke-linejoin:miter;stroke-miterlimit:10;"/><line style="stroke:#191970;stroke-width:1;" x1="52.1033" x2="153.7019" y1="490.5469" y2="490.5469"/><text fill="#191970" font-family="sans-serif" font-size="13" lengthAdjust="spacing" textLength="83.5986" x="64.1033" y="485.8047">N-UNITDATA</text><?plantuml-src TL3HJeCm57scNr6pLnUVCSiIngOI9riSyxqh1HgXnL8ofzc_srjW0auIakQSSyyzvyugVShP73bLHc9vv2B52SahPW3sKJD1sPAJL942VoF7MNF1V9bBXGiU2vvc-f3NHkiyIA6l4WVvQITxeq8AOCxcBudIdFAI27sBcT1Sd_vHEmj2trCbQn4t-37ZkhFfJuvrEOH95Jkrsfmd3DmRTSmghMGxsjkgM0p8kHawezbTUwUCnmmdKcfJ3DsKYgG5mPh9BwoLAOoWxyxtjtYIc8zIr8KBTzuMamgBYfI8YHY30QYZtHfFN9TIrqNzW-38ty20fdA4xruiNXK37syLm5BN1Hy0_Bxnm67vv853d94HuJShAQpilBi2-xP0tI-0e0wUpY4bliVXT1y6qTABF4GL8vhPbC21f2gC97gTBbQFGTW980GmHc2ULmGG1XWZe7P9v0y5Db2hWFT0qgp-XOFmRVEyilXi-XS7cm7kRy8e2FSTOpFOGaProNiHZPiE23FH4BqhsVC1CJxV3m00?></g></svg>